<svg width="30" height="30" viewBox="0 0 30 30" fill="none" xmlns="http://www.w3.org/2000/svg">
<path d="M2.14286 27.1875C2.14286 27.9334 2.4815 28.6488 3.0843 29.1762C3.6871 29.7037 4.50466 30 5.35714 30H24.6429C25.4953 30 26.3129 29.7037 26.9157 29.1762C27.5185 28.6488 27.8571 27.9334 27.8571 27.1875V7.50001H2.14286V27.1875ZM20.3571 12.1875C20.3571 11.9389 20.47 11.7004 20.671 11.5246C20.8719 11.3488 21.1444 11.25 21.4286 11.25C21.7127 11.25 21.9853 11.3488 22.1862 11.5246C22.3871 11.7004 22.5 11.9389 22.5 12.1875V25.3125C22.5 25.5611 22.3871 25.7996 22.1862 25.9754C21.9853 26.1512 21.7127 26.25 21.4286 26.25C21.1444 26.25 20.8719 26.1512 20.671 25.9754C20.47 25.7996 20.3571 25.5611 20.3571 25.3125V12.1875ZM13.9286 12.1875C13.9286 11.9389 14.0415 11.7004 14.2424 11.5246C14.4433 11.3488 14.7158 11.25 15 11.25C15.2842 11.25 15.5567 11.3488 15.7576 11.5246C15.9585 11.7004 16.0714 11.9389 16.0714 12.1875V25.3125C16.0714 25.5611 15.9585 25.7996 15.7576 25.9754C15.5567 26.1512 15.2842 26.25 15 26.25C14.7158 26.25 14.4433 26.1512 14.2424 25.9754C14.0415 25.7996 13.9286 25.5611 13.9286 25.3125V12.1875ZM7.5 12.1875C7.5 11.9389 7.61288 11.7004 7.81381 11.5246C8.01475 11.3488 8.28727 11.25 8.57143 11.25C8.85559 11.25 9.12811 11.3488 9.32904 11.5246C9.52997 11.7004 9.64286 11.9389 9.64286 12.1875V25.3125C9.64286 25.5611 9.52997 25.7996 9.32904 25.9754C9.12811 26.1512 8.85559 26.25 8.57143 26.25C8.28727 26.25 8.01475 26.1512 7.81381 25.9754C7.61288 25.7996 7.5 25.5611 7.5 25.3125V12.1875ZM28.9286 1.87501H20.8929L20.2634 0.779307C20.1301 0.545057 19.9247 0.348012 19.6703 0.210337C19.416 0.0726631 19.1227 -0.00017742 18.8237 1.02731e-05H11.1696C10.8712 -0.000993469 10.5785 0.0715755 10.3251 0.209403C10.0716 0.34723 9.86769 0.544741 9.73661 0.779307L9.10714 1.87501H1.07143C0.787268 1.87501 0.514746 1.97378 0.313814 2.1496C0.112882 2.32541 0 2.56387 0 2.81251L0 4.68751C0 4.93615 0.112882 5.17461 0.313814 5.35042C0.514746 5.52624 0.787268 5.62501 1.07143 5.62501H28.9286C29.2127 5.62501 29.4853 5.52624 29.6862 5.35042C29.8871 5.17461 30 4.93615 30 4.68751V2.81251C30 2.56387 29.8871 2.32541 29.6862 2.1496C29.4853 1.97378 29.2127 1.87501 28.9286 1.87501Z" fill="#979797"/>
</svg>
